<svg width="96" height="40" viewBox="0 0 96 40" fill="none" xmlns="http://www.w3.org/2000/svg">
<g filter="url(#filter0_d_54182_336)">
<path d="M14.6011 0.456055H20.1137L30.3906 31.1461H24.7993L22.2006 23.4952H12.4355L9.87609 31.1461H4.28479L14.6011 0.456055ZM21.2162 19.3023L17.3574 6.63729L13.3411 19.3023H21.2162Z" fill="white"/>
<path d="M36.3708 0.456055L43.3008 11.7811L50.1915 0.456055H56.0978L46.4115 16.0172L55.7828 31.1461H49.8765L43.3008 20.2533L36.6858 31.1461H30.7401L40.1114 16.0172L30.4251 0.456055H36.3708Z" fill="white"/>
<path d="M58.9126 31.1461V0.456055H64.3464V31.1461H58.9126Z" fill="#EC7979"/>
<path d="M91.0875 5.68633H82.1493V31.1461H76.7549V5.68633H67.8167V0.456055H91.0875V5.68633Z" fill="#EC7979"/>
</g>
<defs>
<filter id="filter0_d_54182_336" x="0.28479" y="0.456055" width="94.8027" height="38.6899" filterUnits="userSpaceOnUse" color-interpolation-filters="sRGB">
<feFlood flood-opacity="0" result="BackgroundImageFix"/>
<feColorMatrix in="SourceAlpha" type="matrix" values="0 0 0 0 0 0 0 0 0 0 0 0 0 0 0 0 0 0 127 0" result="hardAlpha"/>
<feOffset dy="4"/>
<feGaussianBlur stdDeviation="2"/>
<feComposite in2="hardAlpha" operator="out"/>
<feColorMatrix type="matrix" values="0 0 0 0 0 0 0 0 0 0 0 0 0 0 0 0 0 0 0.25 0"/>
<feBlend mode="normal" in2="BackgroundImageFix" result="effect1_dropShadow_54182_336"/>
<feBlend mode="normal" in="SourceGraphic" in2="effect1_dropShadow_54182_336" result="shape"/>
</filter>
</defs>
</svg>
